<svg xmlns="http://www.w3.org/2000/svg" width="36" height="48" viewBox="0 0 36 48">
    <path id="Logo"
          d="M50,61A17.884,17.884,0,0,1,32,43.234a23.634,23.634,0,0,1,5.03-14.662.287.287,0,0,1,.229-.113.284.284,0,0,1,.285.282q-.008,8.026,4.438,10.555a84.75,84.75,0,0,1-1-10.013q0-10.462,10.38-16.248a.289.289,0,0,1,.251-.014.281.281,0,0,1,.152.369,6.986,6.986,0,0,0-.588,2.764C51.176,27.307,68,26.109,68,43.234A17.884,17.884,0,0,1,50,61Zm.361-5.333a11.644,11.644,0,0,0,3.785-22.654c-1.187-.408,2.945,9.517-.536,14.206-5.351,7.207-13.812,2.4-12.035,4.442A11.611,11.611,0,0,0,50.361,55.667Z"
          transform="translate(-32 -13)" fill=""/>
</svg>
